<?xml version="1.0" standalone="no"?>
<!DOCTYPE svg PUBLIC "-//W3C//DTD SVG 20010904//EN"
 "http://www.w3.org/TR/2001/REC-SVG-20010904/DTD/svg10.dtd">
<svg version="1.0" xmlns="http://www.w3.org/2000/svg"
 width="244.000000pt" height="207.000000pt" viewBox="0 0 244.000000 207.000000"
 preserveAspectRatio="xMidYMid meet">
<metadata>
Created by potrace 1.16, written by Peter Selinger 2001-2019
</metadata>
<g transform="translate(0.000000,207.000000) scale(0.100000,-0.100000)"
fill="#000000" stroke="none">
<path d="M805 2036 c-35 -15 -368 -307 -399 -349 -19 -25 -21 -45 -24 -178
l-3 -149 -46 0 c-37 0 -43 -3 -34 -13 6 -8 7 -18 3 -22 -4 -5 -1 -5 6 -1 7 4
10 11 7 16 -3 5 12 10 32 12 l38 3 5 150 c3 95 10 158 18 173 19 33 361 332
399 348 25 11 90 14 274 14 270 0 288 -4 337 -68 l27 -35 5 -621 5 -621 220 0
220 0 0 535 0 535 -152 5 -151 5 53 130 54 130 218 0 c212 0 219 -1 251 -23
18 -13 41 -41 52 -62 19 -38 20 -62 20 -712 l0 -674 -22 -44 c-17 -32 -36 -51
-68 -67 l-45 -24 -447 3 c-246 2 -440 0 -430 -4 9 -4 210 -7 445 -7 363 -1
433 1 464 14 48 20 71 41 94 87 19 37 19 65 17 727 l-3 689 -31 39 c-55 69
-72 73 -310 73 l-211 0 -56 -140 c-32 -76 -57 -142 -57 -145 0 -3 70 -5 155
-5 l155 0 0 -530 0 -530 -215 0 -215 0 0 605 c0 492 -3 612 -14 638 -16 39
-61 82 -99 96 -43 17 -504 14 -542 -3z"/>
<path d="M837 1673 l-108 -96 3 -111 3 -111 185 0 185 0 0 205 0 205 -80 2
-80 3 -108 -97z m263 -113 l0 -200 -180 0 -180 0 0 108 0 107 103 92 102 92
78 0 77 1 0 -200z"/>
<path d="M17 1353 c-14 -14 -6 -32 21 -45 35 -17 35 -49 -1 -66 -15 -7 -27
-19 -27 -27 0 -8 12 -20 28 -27 36 -17 35 -49 -1 -66 -37 -18 -32 -46 9 -50
26 -3 31 0 30 19 -1 11 9 28 21 36 19 13 23 13 42 -6 11 -11 18 -27 15 -36 -5
-12 4 -15 54 -15 56 0 60 1 55 21 -5 17 -2 20 18 17 16 -2 23 -9 21 -20 -2
-15 5 -18 38 -18 l40 0 1 -162 c0 -90 3 -157 6 -150 6 15 39 16 49 1 3 -6 -1
-18 -9 -27 -13 -13 -19 -13 -31 -2 -14 11 -16 4 -16 -64 l0 -76 28 0 c33 0 52
-16 52 -45 0 -29 -19 -45 -53 -45 -27 0 -28 -2 -25 -42 2 -36 7 -44 25 -46 17
-3 25 5 37 32 12 28 21 36 41 36 20 0 29 -8 41 -36 19 -45 50 -44 69 4 18 40
11 42 -10 2 -20 -39 -28 -38 -54 5 -28 48 -64 48 -93 0 -24 -43 -42 -41 -46 5
-3 26 0 31 12 27 21 -8 66 30 66 57 0 28 -29 56 -58 56 -20 0 -22 5 -22 60 0
45 3 58 13 54 7 -2 22 4 32 16 17 19 17 21 1 39 -10 11 -24 17 -32 14 -11 -4
-14 22 -16 144 l-3 148 -40 6 c-22 3 -36 7 -31 8 5 0 3 8 -4 16 -18 22 -51 19
-57 -5 -4 -16 -14 -20 -50 -20 -27 0 -42 4 -38 10 3 5 -6 22 -20 36 -25 25
-27 25 -52 9 -25 -16 -26 -16 -20 0 4 9 7 20 7 25 0 4 9 6 19 3 46 -12 81 38
54 76 -28 41 -103 9 -88 -38 5 -18 4 -19 -19 -8 -32 15 -33 29 -3 42 12 6 26
20 32 33 5 12 16 20 22 17 21 -7 15 9 -8 23 -14 9 -19 20 -16 33 4 15 0 19
-22 19 -15 0 -31 -3 -34 -7z"/>
<path d="M737 1074 c-4 -4 -7 -72 -7 -151 0 -83 -4 -142 -9 -139 -5 3 -19 -3
-32 -13 -24 -19 -24 -19 -5 -40 11 -12 26 -19 33 -17 10 4 13 -9 13 -54 0 -57
-1 -60 -24 -60 -26 0 -56 -33 -56 -61 0 -21 32 -50 59 -52 18 -1 21 -7 19 -31
-4 -42 -22 -43 -46 -1 -15 25 -28 35 -44 34 l-23 -2 23 -4 c15 -3 29 -17 38
-39 12 -27 20 -35 37 -32 18 2 23 10 25 46 3 41 2 42 -28 42 -22 0 -33 6 -41
24 -16 35 3 66 41 66 l30 0 0 76 c0 67 -2 75 -15 64 -12 -10 -18 -10 -29 0
-22 17 -8 43 20 37 l24 -4 0 153 0 154 180 0 180 0 0 -254 c0 -156 4 -266 11
-283 12 -33 46 -71 74 -84 12 -6 9 -2 -6 10 -63 49 -64 51 -69 346 l-5 270
-181 3 c-99 1 -183 -1 -187 -4z"/>
<path d="M920 126 c0 -96 3 -116 15 -116 12 0 15 18 15 100 l0 101 58 -3 c57
-3 57 -3 60 -37 4 -39 -9 -51 -55 -51 -18 0 -33 -4 -33 -10 0 -5 20 -10 43
-10 52 0 77 22 77 66 0 55 -19 68 -104 72 l-76 4 0 -116z"/>
</g>
</svg>
